<svg viewBox="0 0 1022.274 1052.92" xmlns="http://www.w3.org/2000/svg"><path d="M511.16 194.794c282.28 0 511.113 228.834 511.113 511.114v.096V706v218.948c0 66.493-53.902 120.396-120.395 120.396-7.386 0-14.616-.665-21.634-1.938l.735.11h-1.046c-57.16-12.27-99.387-62.37-99.387-122.334 0-.9.01-1.797.028-2.692l-.002.134c-.05-25.11-10.21-47.838-26.627-64.336l.004.004C737.604 837.9 715 827.76 690.024 827.76H332.386c-25.02 0-47.66 10.178-64.012 26.62l-.004.004c-16.454 16.534-26.624 39.332-26.624 64.505v.104-.005 4.542c-.086 66.678-54.16 120.698-120.85 120.698-7.158 0-14.17-.622-20.987-1.816l.723.105-1.272-.228C42.228 1030 .03 979.912.03 919.968c0-.744.006-1.486.02-2.227l-.003.113V722.13c-.02-1.745-.033-3.806-.033-5.87 0-280.712 221.766-509.63 499.658-521.11l1.04-.035h.727zm390.718 782.39c28.855 0 52.247-23.392 52.247-52.247v-.24.012-218.712c-.302-123.79-51.023-235.673-132.704-316.25l-.05-.05C741.91 311.335 632.717 262.94 512.22 262.94h-9.148C260.985 271.887 68.127 470.297 68.127 713.75c0 2.722.024 5.438.072 8.148l-.007-.408v197.404c-.008.347-.012.756-.012 1.165 0 27.03 18.87 49.653 44.155 55.415l.38.073c2.46.406 5.292.638 8.18.638 29.074 0 52.65-23.545 52.7-52.608v-4.548c.057-44.072 17.928-83.958 46.797-112.855 28.615-28.765 68.228-46.567 112-46.567h357.533c43.77 0 83.384 17.802 111.993 46.562l.007.007c28.78 28.933 46.568 68.822 46.568 112.866v.18-.01.59c-.007.342-.012.744-.012 1.146 0 27.062 18.916 49.707 44.247 55.436l.38.072c2.615.463 5.625.727 8.697.727h.076-.004zm-433.88-323.887h-86.775v-68.15H468zm-173.55 0H207.67v-68.15h86.777zm346.648 0H554.32v-68.15h86.776zm173.552 0h-86.776v-68.15h86.776zm-197.45-394.58l-50.383-45.887c11.664-12.758 18.81-29.818 18.81-48.547v-.26.013c0-41.15-33.36-74.51-74.51-74.51s-74.51 33.36-74.51 74.51v.275c0 18.736 7.145 35.8 18.86 48.622l-.05-.056-50.294 45.84c-22.706-24.808-36.618-57.995-36.618-94.43v-.36.02c0-78.79 63.87-142.66 142.658-142.66s142.658 63.87 142.658 142.66v.357c0 36.43-13.913 69.612-36.714 94.52l.096-.106zm371 394.58h-86.775v-68.15H988.2zm-867.302 0H34.12v-68.15h86.776z"/></svg>